HIERARCHY
ROOT Hips
{
	OFFSET 0.000000 100.481300 0.000000
	CHANNELS 6 Xposition Yposition Zposition Xrotation Yrotation Zrotation 
	JOINT Spine
	{
		OFFSET -0.279200 12.230698 -2.892100
		CHANNELS 3 Xrotation Yrotation Zrotation
		JOINT Spine1
		{
			OFFSET -0.232667 10.192268 -1.242267
			CHANNELS 3 Xrotation Yrotation Zrotation
			JOINT Spine1_split
			{
				OFFSET -0.232667 10.192268 -1.242267
				CHANNELS 3 Xrotation Yrotation Zrotation
				JOINT Spine2
				{
					OFFSET -0.232667 10.192268 -1.242267
					CHANNELS 3 Xrotation Yrotation Zrotation
					JOINT Neck
					{
						OFFSET -0.418800 17.814194 8.416900
						CHANNELS 3 Xrotation Yrotation Zrotation
						JOINT Head
						{
							OFFSET 0.000000 7.031097 3.806800
							CHANNELS 3 Xrotation Yrotation Zrotation
							JOINT HeadTop_End
							{
								OFFSET 0.000000 24.646606 12.978600
								CHANNELS 3 Xrotation Yrotation Zrotation
								End Site
								{
									OFFSET 0.000000 0.000000 0.000000
								}
							}
						}
					}
					JOINT LeftShoulder
					{
						OFFSET 8.476499 7.247704 -3.868750
						CHANNELS 3 Xrotation Yrotation Zrotation
						JOINT LeftShoulder_split
						{
							OFFSET 8.476499 7.247704 -3.868750
							CHANNELS 3 Xrotation Yrotation Zrotation
							JOINT LeftArm
							{
								OFFSET 9.308998 -2.777710 0.208600
								CHANNELS 3 Xrotation Yrotation Zrotation
								JOINT LeftForeArm
								{
									OFFSET 29.972298 0.000000 0.000000
									CHANNELS 3 Xrotation Yrotation Zrotation
									JOINT LeftHand
									{
										OFFSET 26.026505 0.000000 0.000000
										CHANNELS 3 Xrotation Yrotation Zrotation
										JOINT LeftHandThumb1
										{
											OFFSET 12.240501 -7.147949 9.207150
											CHANNELS 3 Xrotation Yrotation Zrotation
											JOINT LeftHandThumb2
											{
												OFFSET 4.138618 -2.389435 2.389433
												CHANNELS 3 Xrotation Yrotation Zrotation
												JOINT LeftHandThumb3
												{
													OFFSET 2.726913 -1.574387 1.574386
													CHANNELS 3 Xrotation Yrotation Zrotation
													JOINT LeftHandThumb4
													{
														OFFSET 3.941010 -2.275345 2.275342
														CHANNELS 3 Xrotation Yrotation Zrotation
														End Site
														{
															OFFSET 0.000000 0.000000 0.000000
														}
													}
												}
											}
										}
										JOINT LeftHandIndex1
										{
											OFFSET 24.424698 -1.985611 5.953459
											CHANNELS 3 Xrotation Yrotation Zrotation
											JOINT LeftHandIndex2
											{
												OFFSET 6.426697 0.000000 0.000000
												CHANNELS 3 Xrotation Yrotation Zrotation
												JOINT LeftHandIndex3
												{
													OFFSET 5.337898 0.000000 0.000000
													CHANNELS 3 Xrotation Yrotation Zrotation
													JOINT LeftHandIndex4
													{
														OFFSET 4.409401 0.000000 0.000000
														CHANNELS 3 Xrotation Yrotation Zrotation
														End Site
														{
															OFFSET 0.000000 0.000000 0.000000
														}
													}
												}
											}
										}
										JOINT LeftHandMiddle1
										{
											OFFSET 23.810104 0.000000 0.000000
											CHANNELS 3 Xrotation Yrotation Zrotation
											JOINT LeftHandMiddle2
											{
												OFFSET 7.176498 0.000000 0.000000
												CHANNELS 3 Xrotation Yrotation Zrotation
												JOINT LeftHandMiddle3
												{
													OFFSET 6.774902 0.000000 0.000000
													CHANNELS 3 Xrotation Yrotation Zrotation
													JOINT LeftHandMiddle4
													{
														OFFSET 5.403328 0.000000 0.000000
														CHANNELS 3 Xrotation Yrotation Zrotation
														End Site
														{
															OFFSET 0.000000 0.000000 0.000000
														}
													}
												}
											}
										}
										JOINT LeftHandRing1
										{
											OFFSET 22.908401 -0.839279 -6.020567
											CHANNELS 3 Xrotation Yrotation Zrotation
											JOINT LeftHandRing2
											{
												OFFSET 6.337502 0.000000 0.000000
												CHANNELS 3 Xrotation Yrotation Zrotation
												JOINT LeftHandRing3
												{
													OFFSET 5.779297 0.000000 0.000000
													CHANNELS 3 Xrotation Yrotation Zrotation
													JOINT LeftHandRing4
													{
														OFFSET 4.965698 0.000000 0.000000
														CHANNELS 3 Xrotation Yrotation Zrotation
														End Site
														{
															OFFSET 0.000000 0.000000 0.000000
														}
													}
												}
											}
										}
										JOINT LeftHandPinky1
										{
											OFFSET 20.037003 -1.530319 -10.950146
											CHANNELS 3 Xrotation Yrotation Zrotation
											JOINT LeftHandPinky2
											{
												OFFSET 5.254700 0.000000 0.000000
												CHANNELS 3 Xrotation Yrotation Zrotation
												JOINT LeftHandPinky3
												{
													OFFSET 4.810204 0.000000 0.000000
													CHANNELS 3 Xrotation Yrotation Zrotation
													JOINT LeftHandPinky4
													{
														OFFSET 3.647202 0.000000 0.000000
														CHANNELS 3 Xrotation Yrotation Zrotation
														End Site
														{
															OFFSET 0.000000 0.000000 0.000000
														}
													}
												}
											}
										}
									}
								}
							}
						}
					}
					JOINT RightShoulder
					{
						OFFSET -7.570500 7.247704 -3.868750
						CHANNELS 3 Xrotation Yrotation Zrotation
						JOINT RightShoulder_split
						{
							OFFSET -7.570500 7.247704 -3.868750
							CHANNELS 3 Xrotation Yrotation Zrotation
							JOINT RightArm
							{
								OFFSET -9.308998 -2.777710 0.208500
								CHANNELS 3 Xrotation Yrotation Zrotation
								JOINT RightForeArm
								{
									OFFSET -29.972300 0.000000 0.000000
									CHANNELS 3 Xrotation Yrotation Zrotation
									JOINT RightHand
									{
										OFFSET -26.026505 0.000000 0.000000
										CHANNELS 3 Xrotation Yrotation Zrotation
										JOINT RightHandThumb1
										{
											OFFSET -12.240601 -7.148026 9.207092
											CHANNELS 3 Xrotation Yrotation Zrotation
											JOINT RightHandThumb2
											{
												OFFSET -4.138618 -2.389435 2.389433
												CHANNELS 3 Xrotation Yrotation Zrotation
												JOINT RightHandThumb3
												{
													OFFSET -2.726974 -1.574417 1.574421
													CHANNELS 3 Xrotation Yrotation Zrotation
													JOINT RightHandThumb4
													{
														OFFSET -3.941010 -2.275345 2.275343
														CHANNELS 3 Xrotation Yrotation Zrotation
														End Site
														{
															OFFSET 0.000000 0.000000 0.000000
														}
													}
												}
											}
										}
										JOINT RightHandIndex1
										{
											OFFSET -24.424698 -1.985657 5.953444
											CHANNELS 3 Xrotation Yrotation Zrotation
											JOINT RightHandIndex2
											{
												OFFSET -6.426697 0.000000 0.000000
												CHANNELS 3 Xrotation Yrotation Zrotation
												JOINT RightHandIndex3
												{
													OFFSET -5.337898 0.000000 0.000000
													CHANNELS 3 Xrotation Yrotation Zrotation
													JOINT RightHandIndex4
													{
														OFFSET -4.409401 0.000000 0.000000
														CHANNELS 3 Xrotation Yrotation Zrotation
														End Site
														{
															OFFSET 0.000000 0.000000 0.000000
														}
													}
												}
											}
										}
										JOINT RightHandMiddle1
										{
											OFFSET -23.810097 0.000000 0.000000
											CHANNELS 3 Xrotation Yrotation Zrotation
											JOINT RightHandMiddle2
											{
												OFFSET -7.176498 0.000000 0.000000
												CHANNELS 3 Xrotation Yrotation Zrotation
												JOINT RightHandMiddle3
												{
													OFFSET -6.774902 0.000000 0.000000
													CHANNELS 3 Xrotation Yrotation Zrotation
													JOINT RightHandMiddle4
													{
														OFFSET -5.403328 0.000000 0.000000
														CHANNELS 3 Xrotation Yrotation Zrotation
														End Site
														{
															OFFSET 0.000000 0.000000 0.000000
														}
													}
												}
											}
										}
										JOINT RightHandRing1
										{
											OFFSET -22.908302 -0.839325 -6.020576
											CHANNELS 3 Xrotation Yrotation Zrotation
											JOINT RightHandRing2
											{
												OFFSET -6.337502 0.000000 0.000000
												CHANNELS 3 Xrotation Yrotation Zrotation
												JOINT RightHandRing3
												{
													OFFSET -5.779297 0.000000 0.000000
													CHANNELS 3 Xrotation Yrotation Zrotation
													JOINT RightHandRing4
													{
														OFFSET -4.965698 0.000000 0.000000
														CHANNELS 3 Xrotation Yrotation Zrotation
														End Site
														{
															OFFSET 0.000000 0.000000 0.000000
														}
													}
												}
											}
										}
										JOINT RightHandPinky1
										{
											OFFSET -20.037003 -1.530334 -10.950259
											CHANNELS 3 Xrotation Yrotation Zrotation
											JOINT RightHandPinky2
											{
												OFFSET -5.254700 0.000000 0.000000
												CHANNELS 3 Xrotation Yrotation Zrotation
												JOINT RightHandPinky3
												{
													OFFSET -4.810204 0.000000 0.000000
													CHANNELS 3 Xrotation Yrotation Zrotation
													JOINT RightHandPinky4
													{
														OFFSET -3.647202 0.000000 0.000000
														CHANNELS 3 Xrotation Yrotation Zrotation
														End Site
														{
															OFFSET 0.000000 0.000000 0.000000
														}
													}
												}
											}
										}
									}
								}
							}
						}
					}
				}
			}
		}
	}
	JOINT LeftUpLeg
	{
		OFFSET 15.427100 -6.655098 0.678600
		CHANNELS 3 Xrotation Yrotation Zrotation
		JOINT LeftLeg
		{
			OFFSET 4.081073 -39.591068 13.024000
			CHANNELS 3 Xrotation Yrotation Zrotation
			JOINT LeftFoot
			{
				OFFSET -4.081074 -37.707932 -15.979700
				CHANNELS 3 Xrotation Yrotation Zrotation
				JOINT LeftToeBase
				{
					OFFSET 5.346399 -15.068900 20.645000
					CHANNELS 3 Xrotation Yrotation Zrotation
					JOINT LeftToe_End
					{
						OFFSET 2.754700 0.931300 11.300900
						CHANNELS 3 Xrotation Yrotation Zrotation
						End Site
						{
							OFFSET 0.000000 0.000000 0.000000
						}
					}
				}
			}
		}
	}
	JOINT RightUpLeg
	{
		OFFSET -15.569500 -6.655098 0.678600
		CHANNELS 3 Xrotation Yrotation Zrotation
		JOINT RightLeg
		{
			OFFSET -4.081825 -39.591045 13.023800
			CHANNELS 3 Xrotation Yrotation Zrotation
			JOINT RightFoot
			{
				OFFSET 4.081824 -37.707954 -15.979600
				CHANNELS 3 Xrotation Yrotation Zrotation
				JOINT RightToeBase
				{
					OFFSET -5.346400 -15.068900 20.645000
					CHANNELS 3 Xrotation Yrotation Zrotation
					JOINT RightToe_End
					{
						OFFSET -2.754700 0.931300 11.300900
						CHANNELS 3 Xrotation Yrotation Zrotation
						End Site
						{
							OFFSET 0.000000 0.000000 0.000000
						}
					}
				}
			}
		}
	}
}
MOTION
Frames: 4
Frame Time: 0.016667
-22.480236 134.372879 32.741112 2.232228 -19.937028 0.545588 -1.332944 -0.146914 0.799598 -2.672069 -0.088747 -1.714353 0.000000 0.000000 0.000000 -2.672069 -0.088751 -1.714353 -29.250145 2.152608 0.925379 -6.741642 1.385350 2.203538 -0.000000 0.000001 0.000001 3.677177 6.194741 24.143611 0.000000 0.000000 0.000000 -59.663369 -29.699312 18.551125 331.726387 -50.304784 364.575663 9.712927 12.043602 4.406372 -18.855661 8.933450 3.057170 -10.184096 7.391039 11.736444 0.000011 -0.000006 -0.000005 -0.000003 0.000002 0.000001 -0.592713 -8.809723 -64.466870 -7.414312 -3.196022 -73.590261 -0.000000 -0.000001 0.000004 -0.000001 -0.000001 0.000001 -4.669409 -3.546352 -64.557507 -4.343520 -4.390802 -63.402235 0.000000 0.000006 0.000010 -0.000000 0.000001 0.000002 -8.499392 6.196391 -65.422277 -0.143913 -6.140956 -71.299190 0.000005 0.000001 0.000002 0.000001 -0.000001 0.000001 -11.696403 6.569836 -64.444590 0.747966 -7.748545 -64.679767 -0.000000 0.000000 -0.000002 0.000000 0.000001 -0.000002 -5.618869 -8.488125 -29.945264 0.000000 0.000000 0.000000 -79.202457 30.402084 25.861301 -28.766971 45.497348 -9.943797 18.101898 -7.770114 -17.702071 -9.927549 -3.135343 -3.423733 9.147239 -6.167987 1.841540 0.000000 -0.000004 -0.000010 0.000001 0.000000 0.000002 -5.800755 7.899898 47.461110 -1.705276 0.304405 43.209829 -0.000002 0.000000 -0.000002 -0.000001 -0.000001 -0.000001 -3.405848 2.123223 34.452400 -0.819717 0.602208 26.448272 -0.000001 -0.000004 0.000010 -0.000001 -0.000000 -0.000001 -6.121029 -2.660819 25.197526 0.241171 1.204303 20.283567 0.000000 -0.000000 0.000001 0.000001 0.000000 -0.000000 -8.974045 -11.015630 18.858275 0.726522 6.448859 30.513867 -0.000001 0.000000 0.000008 0.000000 0.000000 -0.000001 -20.157439 9.537311 5.248141 34.502550 6.066861 3.935996 23.370471 -0.839629 -4.473597 -0.000019 -0.000001 -0.000017 0.000004 -0.000000 -0.000000 0.602477 -6.770348 -4.577393 21.146592 -18.754960 6.014195 28.590130 -3.986310 1.824026 -0.613568 -0.783481 0.838809 0.000003 -0.000000 0.000002 
-22.751957 133.342407 33.432644 1.980687 -19.290041 0.305950 -1.419487 -0.198864 0.824156 -2.849546 -0.229106 -1.624431 0.000000 0.000000 0.000000 -2.849544 -0.229103 -1.624431 -27.415818 2.071718 -0.405987 -8.884811 0.776544 3.209529 0.000002 0.000001 -0.000001 4.781806 6.071383 25.311120 0.000000 0.000000 0.000000 -58.312747 -25.193189 16.875553 334.030101 -55.829611 367.584443 10.718715 15.468676 -3.727581 -21.309478 8.848123 3.603930 -11.046012 7.810734 12.734312 0.000010 -0.000006 -0.000004 -0.000001 0.000001 0.000000 -0.668645 -9.385962 -69.496984 -8.126664 -3.034134 -78.334429 0.000000 0.000001 0.000001 -0.000000 0.000000 -0.000004 -5.910793 -3.911910 -68.776125 -4.727741 -4.456437 -66.846474 0.000001 0.000004 0.000007 -0.000000 0.000002 0.000003 -9.746241 6.167377 -68.259667 -0.270677 -6.498657 -74.555763 0.000003 -0.000002 -0.000005 -0.000000 0.000001 0.000001 -13.460177 6.392929 -66.874519 0.796663 -7.975016 -66.777120 -0.000005 0.000003 0.000003 -0.000002 0.000003 -0.000001 -3.148149 -6.622062 -28.188295 0.000000 0.000000 0.000000 -74.921151 31.517249 20.078726 -28.646404 45.441098 -7.798875 14.499139 -7.568645 -15.891487 -11.314168 -0.640390 -7.794858 7.524582 -9.236267 1.695806 0.000001 -0.000003 -0.000005 0.000000 0.000001 0.000001 -6.559494 7.393450 54.528866 -2.449465 0.693820 50.819773 -0.000001 0.000000 0.000000 -0.000000 -0.000000 0.000000 -5.103910 3.187955 44.972848 -1.503191 1.527316 37.885693 -0.000001 -0.000003 0.000016 -0.000000 -0.000001 -0.000002 -7.748205 -2.737563 35.791728 0.247998 1.908887 31.704963 0.000000 -0.000001 -0.000004 -0.000000 -0.000000 -0.000002 -9.850004 -10.151339 30.707233 1.148596 7.284855 39.051842 -0.000001 0.000000 0.000002 0.000000 -0.000000 -0.000002 -20.820889 9.001298 5.153010 35.298199 7.723521 3.585578 26.367527 -0.698546 -3.364867 -0.000033 -0.000000 -0.000021 -0.000000 0.000000 -0.000000 -0.740153 -7.064716 -5.094596 21.885526 -18.071272 5.910416 31.051809 -3.750352 1.200188 -0.254719 0.048019 -0.222037 -0.000000 -0.000000 0.000003 
-23.010176 132.108063 34.102314 1.645972 -18.510205 0.043647 -1.504085 -0.219072 0.840842 -3.020491 -0.300870 -1.519637 0.000000 0.000000 0.000000 -3.020491 -0.300878 -1.519637 -26.025210 2.006424 -1.891970 -10.487891 0.012927 4.301345 0.000003 0.000000 0.000000 5.846716 6.266299 26.599550 0.000000 0.000000 0.000000 -57.037182 -19.937320 14.143167 336.297396 -62.699504 371.221710 12.075453 18.775985 -12.001238 -22.924196 8.761570 3.939452 -11.613933 8.069317 13.395160 0.000007 -0.000008 -0.000003 -0.000002 -0.000000 -0.000001 -0.755075 -9.793358 -72.801682 -8.582110 -2.886312 -81.445218 -0.000000 -0.000000 -0.000001 0.000000 -0.000000 0.000001 -6.750404 -4.067560 -71.547884 -4.980422 -4.484676 -69.106515 -0.000002 0.000005 0.000008 -0.000000 -0.000000 0.000000 -10.571541 6.213389 -70.118558 -0.370426 -6.734655 -76.693995 0.000004 0.000000 -0.000000 0.000000 -0.000001 -0.000002 -14.634870 6.353564 -68.460577 0.821190 -8.127440 -68.153922 -0.000001 0.000004 0.000007 0.000001 0.000001 -0.000003 -2.023505 -4.492270 -27.139994 0.000000 0.000000 0.000000 -68.184330 31.329432 12.866677 -29.783019 45.104059 -2.566861 9.883234 -7.225269 -16.008770 -12.809649 2.188562 -12.808841 5.561965 -12.734988 1.298108 -0.000000 -0.000003 -0.000006 -0.000000 0.000000 -0.000002 -7.288529 6.738065 62.692332 -3.350649 0.967324 59.638869 -0.000000 -0.000000 0.000001 -0.000001 -0.000000 0.000001 -7.419784 3.777893 57.205519 -2.526050 2.313666 51.151010 -0.000002 -0.000003 0.000014 0.000000 -0.000000 -0.000000 -9.662693 -3.338273 48.032677 0.154350 2.763928 44.927144 0.000000 -0.000000 0.000001 0.000000 0.000000 0.000001 -11.600130 -9.546195 44.232199 1.459222 8.447027 48.947301 -0.000001 0.000001 0.000003 0.000000 0.000000 -0.000001 -21.280276 8.347365 5.309095 36.092318 9.504756 2.800140 29.237922 -0.524481 -1.966911 0.000002 -0.000000 -0.000018 0.000001 -0.000000 0.000001 -2.126810 -7.048888 -5.365999 22.680717 -16.974497 5.569986 33.625452 -3.118392 0.252810 -0.065636 0.012364 -0.057155 0.000002 -0.000001 0.000000 
-23.263420 130.796326 34.769085 1.243457 -17.578732 -0.251233 -1.640853 -0.199689 0.923253 -3.292606 -0.278828 -1.303055 0.000000 0.000000 0.000000 -3.292606 -0.278819 -1.303055 -24.829283 1.898694 -2.852153 -11.555616 -0.586097 4.627744 -0.000001 0.000000 -0.000000 6.717991 6.329314 27.810085 0.000000 0.000000 0.000000 -55.092582 -13.574156 10.508932 339.071955 -71.280182 375.947327 13.106022 22.007768 -18.493760 -23.505068 8.724756 4.055235 -11.818401 8.158923 13.633707 0.000009 -0.000006 -0.000002 0.000001 -0.000001 -0.000000 -0.793918 -9.944879 -73.989882 -8.742880 -2.825299 -82.562302 -0.000000 -0.000000 0.000001 0.000000 0.000000 0.000000 -7.055832 -4.106876 -72.544040 -5.071180 -4.491936 -69.918427 -0.000001 0.000005 0.000008 0.000000 0.000000 -0.000000 -10.868872 6.242544 -70.785622 -0.409511 -6.819504 -77.462466 0.000005 0.000000 -0.000001 0.000001 0.000001 0.000001 -15.058832 6.352172 -69.028542 0.828527 -8.182909 -68.648667 0.000002 -0.000000 0.000002 0.000001 0.000000 -0.000002 -0.962622 -3.617261 -26.818758 0.000000 0.000000 0.000000 -63.904274 30.681131 10.710910 -28.415926 46.120391 -0.431014 6.073469 -6.296517 -14.957996 -14.232507 4.972267 -17.779604 3.459919 -16.185151 0.633624 -0.000000 -0.000004 -0.000006 0.000000 0.000001 0.000002 -7.858087 6.046803 70.836165 -4.257020 1.049420 68.456698 -0.000000 0.000000 -0.000002 -0.000000 -0.000000 -0.000005 -9.917068 3.592962 69.474779 -3.708006 2.725239 64.428792 -0.000002 -0.000003 0.000015 0.000000 0.000000 -0.000001 -11.472226 -4.499106 60.238601 -0.069188 3.650697 58.140489 0.000000 0.000000 0.000001 -0.000000 0.000001 0.000001 -13.977435 -9.646174 57.544446 1.523881 9.778961 58.870746 -0.000000 0.000001 0.000006 0.000000 0.000000 0.000001 -21.595612 8.115945 5.393308 36.760925 10.870068 2.306297 31.778364 -0.121488 -0.499191 -0.000011 0.000000 -0.000021 0.000002 0.000000 0.000000 -3.432151 -6.977821 -5.086397 23.494406 -16.274324 4.092639 36.006872 -1.866141 0.398796 -0.000068 0.000014 0.000053 0.000002 0.000003 -0.000001 
